<svg width="32" height="32" viewBox="0 0 32 32" fill="none" xmlns="http://www.w3.org/2000/svg">
<g clip-path="url(#clip0_513_340)">
<path d="M30.47 18.29H28.95V16.77H27.43V15.24H25.9V16.77H24.38V18.29H21.33V19.81H19.81V22.86H12.19V21.34H10.66V19.81H9.14V18.29H7.62V15.24H4.57V16.77H3.05V18.29H1.52V19.81H0V30.48H1.52V22.86H10.66V24.38H12.19V25.91H19.81V24.38H21.33V22.86H30.47V30.48H32V19.81H30.47V18.29Z" fill="black"/>
<path d="M28.95 7.62H30.4699V9.14999H28.95V7.62Z" fill="black"/>
<path d="M1.52002 30.48H30.47V32H1.52002V30.48Z" fill="black"/>
<path d="M27.4301 9.15002H28.9501V10.67H27.4301V9.15002Z" fill="black"/>
<path d="M27.4301 6.09998H28.9501V7.61998H27.4301V6.09998Z" fill="black"/>
<path d="M25.9 10.67H27.43V12.19H25.9V10.67Z" fill="black"/>
<path d="M25.9 4.57996H27.43V6.09996H25.9V4.57996Z" fill="black"/>
<path d="M24.38 12.1899H25.9V13.7199H24.38V12.1899Z" fill="black"/>
<path d="M24.38 3.05005H25.9V4.58005H24.38V3.05005Z" fill="black"/>
<path d="M22.86 13.72H24.38V15.24H22.86V13.72Z" fill="black"/>
<path d="M22.86 1.53003H24.38V3.05003H22.86V1.53003Z" fill="black"/>
<path d="M21.33 25.91H22.86V27.43H21.33V25.91Z" fill="black"/>
<path d="M21.33 12.1899H16.76V13.7199H19.81V16.7699H22.86V15.2399H21.33V12.1899Z" fill="black"/>
<path d="M10.66 27.4301H21.33V28.9601H10.66V27.4301Z" fill="black"/>
<path d="M13.71 19.81V21.34H18.28V18.29H16.76V19.81H13.71Z" fill="black"/>
<path d="M15.24 13.72H16.76V18.29H15.24V13.72Z" fill="black"/>
<path d="M19.81 0V4.58H13.71V6.1H21.33V1.53H22.86V0L19.81 0Z" fill="black"/>
<path d="M12.1899 18.29H13.7099V19.81H12.1899V18.29Z" fill="black"/>
<path d="M12.1899 6.09998H13.7099V7.61998H12.1899V6.09998Z" fill="black"/>
<path d="M10.66 15.24H12.19V18.29H10.66V15.24Z" fill="black"/>
<path d="M10.66 7.62H12.19V9.14999H10.66V7.62Z" fill="black"/>
<path d="M9.14001 25.91H10.66V27.43H9.14001V25.91Z" fill="black"/>
<path d="M9.14001 9.15002H10.66V15.24H9.14001V9.15002Z" fill="black"/>
</g>
<defs>
<clipPath id="clip0_513_340">
<rect width="32" height="32" fill="white"/>
</clipPath>
</defs>
</svg>
