<svg width="32" height="32" viewBox="0 0 32 32" fill="none" xmlns="http://www.w3.org/2000/svg">
<path d="M30.47 3.05005H32V28.9501H30.47V3.05005Z" fill="black"/>
<path d="M28.95 28.95H30.4699V30.4799H28.95V28.95Z" fill="black"/>
<path d="M28.95 1.52002H30.4699V3.05002H28.95V1.52002Z" fill="black"/>
<path d="M27.42 4.56995H28.95V27.4299H27.42V4.56995Z" fill="black"/>
<path d="M3.04004 30.48H28.95V32H3.04004V30.48Z" fill="black"/>
<path d="M4.56995 27.4301H27.4199V28.9501H4.56995V27.4301Z" fill="black"/>
<path d="M22.85 15.24H21.33V13.71H18.28V15.24H16.76V13.71H13.71V22.86H16.76V18.29H18.28V16.76H19.81V18.29H21.33V22.86H24.38V16.76H22.85V15.24Z" fill="black"/>
<path d="M7.60999 13.71H10.66V22.86H7.60999V13.71Z" fill="black"/>
<path d="M7.60999 9.14001H10.66V12.19H7.60999V9.14001Z" fill="black"/>
<path d="M4.56995 3.05005H27.4199V4.57005H4.56995V3.05005Z" fill="black"/>
<path d="M3.04004 0H28.95V1.52H3.04004V0Z" fill="black"/>
<path d="M3.04004 4.56995H4.57004V27.4299H3.04004V4.56995Z" fill="black"/>
<path d="M1.52002 28.95H3.04002V30.4799H1.52002V28.95Z" fill="black"/>
<path d="M1.52002 1.52002H3.04002V3.05002H1.52002V1.52002Z" fill="black"/>
<path d="M0 3.05005H1.52V28.9501H0V3.05005Z" fill="black"/>
</svg>
